<svg width="30" height="30" viewBox="0 0 30 30" fill="none" xmlns="http://www.w3.org/2000/svg">
<path d="M11.8429 13.745C12.5329 13.745 13.0929 14.305 13.0929 14.995C13.0929 15.685 12.5329 16.245 11.8429 16.245H3.25293C2.56293 16.245 2.00293 15.685 2.00293 14.995C2.00293 14.305 2.56293 13.745 3.25293 13.745H11.8429Z" fill="#489F01"/>
<path d="M12.7229 14.115C13.2129 14.605 13.2129 15.395 12.7229 15.885C12.2329 16.375 11.4429 16.375 10.9529 15.885L5.37287 10.305C4.88287 9.815 4.88287 9.02501 5.37287 8.53501C5.86287 8.04501 6.65289 8.04501 7.14289 8.53501L12.7229 14.115Z" fill="#489F01"/>
<path d="M12.7229 15.885C13.2129 15.395 13.2129 14.605 12.7229 14.115C12.2329 13.625 11.4429 13.625 10.9529 14.115L5.37287 19.695C4.88287 20.185 4.88287 20.975 5.37287 21.465C5.86287 21.955 6.65289 21.955 7.14289 21.465L12.7229 15.885Z" fill="#489F01"/>
<path opacity="0.7" d="M8.81299 16.255L10.063 15.005L8.81299 13.745H11.843C12.533 13.745 13.093 14.305 13.093 14.995C13.093 15.685 12.533 16.245 11.843 16.245H8.81299V16.255Z" fill="#489F01"/>
<path d="M11.103 16.015C11.663 16.425 12.443 16.295 12.853 15.735C13.263 15.175 13.133 14.395 12.573 13.985C12.133 13.665 11.543 13.665 11.103 13.985L10.063 15.005L11.103 16.015Z" fill="#489F01"/>
<path d="M13.7429 18.155C13.7429 17.465 14.3029 16.905 14.9929 16.905C15.6829 16.905 16.2429 17.465 16.2429 18.155V26.745C16.2429 27.435 15.6829 27.995 14.9929 27.995C14.3029 27.995 13.7429 27.435 13.7429 26.745V18.155Z" fill="#1D90FC"/>
<path d="M14.1129 17.275C14.6029 16.785 15.3929 16.785 15.8829 17.275C16.3729 17.765 16.3729 18.555 15.8829 19.045L10.3029 24.625C9.81292 25.115 9.02291 25.115 8.53291 24.625C8.04291 24.135 8.04291 23.345 8.53291 22.855L14.1129 17.275Z" fill="#1D90FC"/>
<path d="M15.8829 17.275C15.4029 16.775 14.6129 16.755 14.1129 17.235C13.6129 17.715 13.5929 18.505 14.0729 19.005C14.0829 19.015 14.1029 19.035 14.1129 19.045L19.6829 24.625C20.1729 25.115 20.9629 25.115 21.4529 24.625C21.9429 24.135 21.9429 23.345 21.4529 22.855L15.8829 17.275Z" fill="#1D90FC"/>
<path opacity="0.7" d="M15.0029 19.935L13.7529 21.185V18.155C13.7529 17.465 14.3129 16.905 15.0029 16.905C15.6929 16.905 16.2529 17.465 16.2529 18.155V21.185L15.0029 19.935Z" fill="#1D90FC"/>
<path d="M18.163 16.255C17.473 16.255 16.913 15.695 16.913 15.005C16.913 14.315 17.473 13.755 18.163 13.755H26.753C27.443 13.755 28.003 14.315 28.003 15.005C28.003 15.695 27.443 16.255 26.753 16.255H18.163Z" fill="#E62805"/>
<path d="M17.273 15.885C16.783 15.395 16.783 14.605 17.273 14.115C17.763 13.625 18.553 13.625 19.043 14.115L24.623 19.695C25.093 20.195 25.073 20.995 24.573 21.465C24.093 21.915 23.333 21.915 22.853 21.465L17.273 15.885Z" fill="#E62805"/>
<path d="M17.273 14.115C16.783 14.605 16.783 15.395 17.273 15.885C17.763 16.375 18.553 16.375 19.043 15.885L24.623 10.305C25.113 9.815 25.113 9.02501 24.623 8.53501C24.133 8.04501 23.343 8.04501 22.853 8.53501L17.273 14.115Z" fill="#E62805"/>
<path opacity="0.7" d="M18.163 16.255C17.473 16.255 16.913 15.695 16.913 15.005C16.913 14.315 17.473 13.755 18.163 13.755H21.193L19.943 15.015L21.193 16.265H18.163V16.255Z" fill="#E62805"/>
<path d="M18.8929 13.985C18.3329 13.575 17.5529 13.705 17.1429 14.265C16.7329 14.825 16.8629 15.605 17.4229 16.015C17.8629 16.335 18.4529 16.335 18.8929 16.015L19.9329 14.995L18.8929 13.985Z" fill="#E62805"/>
<path d="M16.2529 11.835C16.2529 12.525 15.6929 13.085 15.0029 13.085C14.3129 13.085 13.7529 12.525 13.7529 11.835V3.245C13.7529 2.555 14.3129 1.995 15.0029 1.995C15.6929 1.995 16.2529 2.555 16.2529 3.245V11.835Z" fill="#FFA200"/>
<path d="M15.883 12.725C15.393 13.215 14.603 13.215 14.113 12.725C13.623 12.235 13.623 11.445 14.113 10.955L19.683 5.37501C20.173 4.88501 20.963 4.88501 21.453 5.37501C21.943 5.86501 21.943 6.655 21.453 7.145L15.883 12.725Z" fill="#FFA200"/>
<path d="M14.113 12.725C14.603 13.215 15.3929 13.215 15.8829 12.725C16.3729 12.235 16.3729 11.445 15.8829 10.955L10.303 5.375C9.80295 4.905 9.00293 4.92498 8.53293 5.42498C8.08293 5.90498 8.08293 6.66498 8.53293 7.14498L14.113 12.725Z" fill="#FFA200"/>
<path opacity="0.7" d="M13.7429 11.845V8.815L14.9929 10.065L16.2529 8.815V11.845C16.2529 12.535 15.6929 13.095 15.0029 13.095C14.3129 13.095 13.7429 12.535 13.7429 11.845Z" fill="#FFA200"/>
<path d="M13.9829 11.105C13.5729 11.665 13.7029 12.445 14.2629 12.855C14.8229 13.265 15.6029 13.135 16.0129 12.575C16.3329 12.135 16.3329 11.545 16.0129 11.105L14.9929 10.065L13.9829 11.105Z" fill="#FFA200"/>
<path d="M16.0129 18.895C16.4229 18.335 16.2929 17.555 15.7329 17.145C15.1729 16.735 14.3929 16.865 13.9829 17.425C13.6629 17.865 13.6629 18.455 13.9829 18.895L15.0029 19.935L16.0129 18.895Z" fill="#1D90FC"/>
</svg>
